:FULLY-SPECIFIED
:FORCE-ALL-JOINTS-BE-3DOF
:DEGREES
544
root 8.13969 14.1307 -3.57642 -178.06 51.0161 -181.021
lfemur -32.3065 -6.14374 -18.8446
ltibia 82.4633 0 0
lfoot -34.9661 -4.65405 0
ltoes -5.70091 0 0
rfemur -48.5652 -2.63731 -4.55877
rtibia 55.2673 0 0
rfoot 0.616307 5.10343 0
rtoes -38.2114 0 0
lowerback 12.8142 0.872743 1.96083
upperback 5.96307 2.25775 6.97577
thorax -1.12977 1.3792 5.91953
lowerneck -3.83818 -15.9184 -6.34294
upperneck 10.7288 -21.4403 7.03533
head 5.30757 -10.3734 1.65901
lclavicle 2.5371e-14 1.10241e-14 0
lhumerus -44.9087 -19.7428 109.188
lradius 58.0069 0 0
lwrist 25.2154 0 0
lhand -20.4274 -4.80593 0
lfingers 7.12502 0 0
lthumb 5.92726 25.0655 0
rclavicle 2.5371e-14 1.10241e-14 0
rhumerus 10.0285 15.3222 -82.5618
rradius 136.036 0 0
rwrist -47.1559 0 0
rhand -25.2871 -22.1071 0
rfingers 7.12502 0 0
rthumb 1.23562 -772.07 0
545
root 8.20732 14.062 -3.53417 -178.774 49.7409 -181.521
lfemur -32.6915 -6.10957 -17.7693
ltibia 84.2903 0 0
lfoot -36.2679 -7.1551 0
ltoes -5.06598 0 0
rfemur -48.743 -4.1828 -4.064
rtibia 58.2567 0 0
rfoot -2.64021 3.7166 0
rtoes -38.4183 0 0
lowerback 12.8601 0.796478 1.87422
upperback 6.24574 2.16704 6.92086
thorax -0.848835 1.34369 5.92638
lowerneck -3.2745 -15.831 -6.17794
upperneck 10.0076 -21.3718 7.53509
head 5.02623 -10.3441 1.86255
lclavicle 4.62473e-14 9.76814e-15 0
lhumerus -45.2302 -17.3374 107.46
lradius 57.2108 0 0
lwrist 27.0043 0 0
lhand -21.5708 -4.17398 0
lfingers 7.12502 0 0
lthumb 4.82271 25.7197 0
rclavicle 4.62473e-14 9.76814e-15 0
rhumerus 8.79546 16.6614 -84.5296
rradius 135.599 0 0
rwrist -46.3677 0 0
rhand -26.349 -22.2966 0
rfingers 7.12502 0 0
rthumb 0.209253 -772.253 0
546
root 8.27496 13.9932 -3.49191 -179.634 48.2094 -182.133
lfemur -33.1366 -6.02588 -16.5108
ltibia 86.44 0 0
lfoot -37.8032 -10.0442 0
ltoes -4.3671 0 0
rfemur -48.9219 -6.00654 -3.49555
rtibia 61.6664 0 0
rfoot -6.41847 2.10748 0
rtoes -38.7086 0 0
lowerback 12.9169 0.70735 1.77485
upperback 6.58069 2.06182 6.8638
thorax -0.517514 1.30263 5.9406
lowerneck -2.6083 -15.7377 -5.99098
upperneck 9.16832 -21.3036 8.12398
head 4.69871 -10.3154 2.10188
lclavicle 7.0572e-14 8.22175e-15 0
lhumerus -45.5965 -14.4964 105.416
lradius 56.2846 0 0
lwrist 29.1204 0 0
lhand -22.9695 -3.45514 0
lfingers 7.12502 0 0
lthumb 3.47206 26.4714 0
rclavicle 7.0572e-14 8.22175e-15 0
rhumerus 7.48031 18.143 -86.7958
rradius 135.158 0 0
rwrist -45.5759 0 0
rhand -27.6658 -22.5407 0
rfingers 7.12502 0 0
rthumb -1.06304 -772.497 0
547
root 8.3426 13.9245 -3.44966 -180.653 46.3973 -182.868
lfemur -33.6469 -5.88619 -15.0556
ltibia 88.9407 0 0
lfoot -39.5906 -13.3481 0
ltoes -3.60323 0 0
rfemur -49.0997 -8.13052 -2.84987
rtibia 65.5231 0 0
rfoot -10.7566 0.259778 0
rtoes -39.0929 0 0
lowerback 12.986 0.604552 1.66225
upperback 6.9725 1.94136 6.80527
thorax -0.131767 1.25582 5.96331
lowerneck -1.83125 -15.6388 -5.78109
upperneck 8.20244 -21.237 8.80926
head 4.32172 -10.2881 2.37983
lclavicle 9.85972e-14 6.36111e-15 0
lhumerus -46.01 -11.1851 103.032
lradius 55.2192 0 0
lwrist 31.5909 0 0
lhand -24.6475 -2.6444 0
lfingers 7.12502 0 0
lthumb 1.85197 27.3273 0
rclavicle 9.85972e-14 6.36111e-15 0
rhumerus 6.08594 19.7702 -89.381
rradius 134.72 0 0
rwrist -44.7914 0 0
rhand -29.263 -22.8451 0
rfingers 7.12502 0 0
rthumb -2.6057 -772.809 0
548
root 8.30614 14.0206 -3.4548 -180.669 46.498 -182.924
lfemur -33.5022 -5.72677 -14.9394
ltibia 88.6803 0 0
lfoot -39.7373 -13.4975 0
ltoes -3.53718 0 0
rfemur -49.0839 -8.3314 -2.62446
rtibia 65.4164 0 0
rfoot -10.8461 0.228682 0
rtoes -39.1263 0 0
lowerback 12.9176 0.572142 1.60418
upperback 6.95446 1.88462 6.75957
thorax -0.107606 1.22516 5.9546
lowerneck -1.77977 -15.6043 -5.73793
upperneck 8.11389 -21.1958 8.83145
head 4.28145 -10.2693 2.39264
lclavicle 1.00588e-13 5.43535e-15 0
lhumerus -46.0633 -10.8184 102.724
lradius 55.0979 0 0
lwrist 31.6912 0 0
lhand -24.8002 -2.61651 0
lfingers 7.12502 0 0
lthumb 1.70455 27.36 0
rclavicle 1.00588e-13 5.43535e-15 0
rhumerus 6.24775 19.9043 -89.4392
rradius 134.666 0 0
rwrist -44.699 0 0
rhand -29.4011 -22.8624 0
rfingers 7.12502 0 0
rthumb -2.73908 -772.828 0
549
root 8.26967 14.1166 -3.45994 -180.799 46.4229 -183.063
lfemur -33.4679 -5.65623 -14.8281
ltibia 88.6892 0 0
lfoot -39.8838 -13.7226 0
ltoes -3.49441 0 0
rfemur -49.0831 -8.4881 -2.51867
rtibia 65.4579 0 0
rfoot -11.0517 0.148788 0
rtoes -39.2041 0 0
lowerback 12.8979 0.554587 1.58252
upperback 6.96438 1.85663 6.74164
thorax -0.0838406 1.21085 5.95165
lowerneck -1.72268 -15.5875 -5.71226
upperneck 8.02988 -21.1773 8.8666
head 4.24618 -10.2616 2.40933
lclavicle 1.0262e-13 4.84531e-15 0
lhumerus -46.1508 -10.4903 102.529
lradius 55.0067 0 0
lwrist 31.8244 0 0
lhand -24.9415 -2.58261 0
lfingers 7.12502 0 0
lthumb 1.56822 27.3981 0
rclavicle 1.0262e-13 4.84531e-15 0
rhumerus 6.26654 20.0277 -89.5718
rradius 134.626 0 0
rwrist -44.629 0 0
rhand -29.5289 -22.8886 0
rfingers 7.12502 0 0
rthumb -2.86251 -772.855 0
550
root 8.23321 14.2127 -3.46509 -181.019 46.2129 -183.269
lfemur -33.5193 -5.65628 -14.7247
ltibia 88.9035 0 0
lfoot -40.0254 -13.9989 0
ltoes -3.47265 0 0
rfemur -49.0938 -8.60337 -2.50948
rtibia 65.6029 0 0
rfoot -11.3359 0.036027 0
rtoes -39.3173 0 0
lowerback 12.9166 0.549038 1.59012
upperback 6.99526 1.85168 6.74588
thorax -0.061574 1.20958 5.95317
lowerneck -1.66331 -15.5849 -5.701
upperneck 7.95195 -21.1769 8.9099
head 4.21582 -10.2625 2.42829
lclavicle 1.04606e-13 4.52091e-15 0
lhumerus -46.2657 -10.2007 102.431
lradius 54.9424 0 0
lwrist 31.9759 0 0
lhand -25.069 -2.54664 0
lfingers 7.12502 0 0
lthumb 1.4451 27.4376 0
rclavicle 1.04606e-13 4.52091e-15 0
rhumerus 6.17671 20.1381 -89.7556
rradius 134.599 0 0
rwrist -44.5788 0 0
rhand -29.644 -22.9211 0
rfingers 7.12502 0 0
rthumb -2.97369 -772.888 0
551
root 8.19674 14.3087 -3.47023 -181.304 45.9093 -183.525
lfemur -33.6318 -5.7086 -14.6323
ltibia 89.2595 0 0
lfoot -40.1574 -14.3019 0
ltoes -3.46962 0 0
rfemur -49.1122 -8.67996 -2.57386
rtibia 65.8065 0 0
rfoot -11.6616 -0.0936668 0
rtoes -39.457 0 0
lowerback 12.9634 0.552645 1.61982
upperback 7.04006 1.86402 6.76666
thorax -0.0419079 1.21802 5.95785
lowerneck -1.60494 -15.5932 -5.70106
upperneck 7.88165 -21.19 8.95656
head 4.19029 -10.2701 2.44788
lclavicle 1.06459e-13 4.39207e-15 0
lhumerus -46.4013 -9.94968 102.413
lradius 54.9017 0 0
lwrist 32.1314 0 0
lhand -25.1806 -2.51254 0
lfingers 7.12502 0 0
lthumb 1.33733 27.4747 0
rclavicle 1.06459e-13 4.39207e-15 0
rhumerus 6.01263 20.2334 -89.9678
rradius 134.582 0 0
rwrist -44.5456 0 0
rhand -29.7441 -22.9573 0
rfingers 7.12502 0 0
rthumb -3.07032 -772.925 0
552
root 8.16028 14.4048 -3.47537 -181.63 45.5531 -183.813
lfemur -33.7807 -5.7949 -14.5538
ltibia 89.6933 0 0
lfoot -40.275 -14.6069 0
ltoes -3.48304 0 0
rfemur -49.1345 -8.72063 -2.68878
rtibia 66.0239 0 0
rfoot -11.9913 -0.224361 0
rtoes -39.6143 0 0
lowerback 13.0279 0.56256 1.66447
upperback 7.09179 1.88791 6.79837
thorax -0.0259442 1.23285 5.96436
lowerneck -1.55088 -15.6088 -5.70935
upperneck 7.82053 -21.2121 9.00177
head 4.16951 -10.2819 2.46648
lclavicle 1.08092e-13 4.38872e-15 0
lhumerus -46.5508 -9.73731 102.459
lradius 54.8814 0 0
lwrist 32.2765 0 0
lhand -25.2741 -2.48425 0
lfingers 7.12502 0 0
lthumb 1.24702 27.5052 0
rclavicle 1.08092e-13 4.38872e-15 0
rhumerus 5.80867 20.3113 -90.1851
rradius 134.575 0 0
rwrist -44.5267 0 0
rhand -29.8267 -22.9947 0
rfingers 7.12502 0 0
rthumb -3.15009 -772.963 0
